# xmcd CD database file
#
# Track frame offsets:
#	150
#	19020
#	28251
#	36768
#	42393
#	47625
#	58831
#	63041
#	67243
#	80110
#	88189
#	93774
#	99385
#	105234
#	115504
#	124753
#	130404
#	140525
#	157999
#	179310
#	190953
#	200310
#	210316
#	225349
#	234246
#	245678
#	252827
#	263701
#	274231
#	294361
#	305961
#	316703
#	328302
#	334237
#	340983
#
# Disc length: 4664 seconds
#
# Revision: 0
# Processed by: cddbd v1.5.1PL2 Copyright (c) Steve Scherf et al.
# Submitted via: CDex 1.51
#
DISCID=f8123623
DTITLE=DJ Double Up - DJ Double Up - Megacity Mix Volume 1
DYEAR=2006
DGENRE=Urban
TTITLE0=DJ Double Up - Intro ft Nizell
TTITLE1=Deesha - Let Your Freak Out
TTITLE2=Chris Brown ft. Juelz Santana - Run It
TTITLE3=Silena Murrell - I Like My Man Hard
TTITLE4=Juelz Santana - There It Go
TTITLE5=Cassie - Me and U
TTITLE6=Busta Rhymes - Touch It
TTITLE7=Pharrell ft Gwen Stefani - Can I Have It Like That
TTITLE8=Mobb Deep ft 50 Cent and Nate Dogg - Have A Party
TTITLE9=LeToya ft Paul Wall and Slim Thug - All Eyez On Me
TTITLE10=The Pussycat Dolls - Buttons
TTITLE11=Cheri Dennis ft Jim Jones and Black Rob - I Love You
TTITLE12=Amerie - Talkin' About
TTITLE13=The Notorious B.I.G ft Diddy, Nelly and Jagged Edge - Nasty Girl
TTITLE14=Deesha - Falling In Love
TTITLE15=Rihanna - If Its Lovin That You Want
TTITLE16=Deesha - Get Crazy
TTITLE17=R. Kelly Ft Sean Paul and Akon - Slow Wind
TTITLE18=DJ Double Up Interlude ft Deesha and Arabesque - Do You Remember
TTITLE19=Deesha Ft Ghostface Killah and Ne-Yo - Back Like That
TTITLE20=Christina Milian ft Young Jeezy - Say I
TTITLE21=Nick Cannon ft Izzy - Dime Piece
TTITLE22=Ne-Yo ft LL Cool J - So Sick
TTITLE23=Donell Jones ft J.D - Better Start Talkin
TTITLE24=Cassie ft R-Les - Just One Night
TTITLE25=Chris Brown ft Bang City - One More
TTITLE26=Black Buddafly ft Fabolous - Bad Girl
TTITLE27=T.I - Why You Wanna
TTITLE28=Nizell ft DJ Khaled, Lil Wayne, Paul Wall and Fat Joe - Holla At Me Baby
TTITLE29=Remy Ma - Conceited
TTITLE30=Mila J. ft Omarion - Im Mi
TTITLE31=LL Cool J ft Ginuwine - Ooh Wee
TTITLE32=Deesha - Take Me Home (snippet)
TTITLE33=Deesha - Put It On Me (snippet)
TTITLE34=Deesha - Break Me Off (snippet)
EXTD=YEAR: 2006
EXTT0=
EXTT1=
EXTT2=
EXTT3=
EXTT4=
EXTT5=
EXTT6=
EXTT7=
EXTT8=
EXTT9=
EXTT10=
EXTT11=
EXTT12=
EXTT13=
EXTT14=
EXTT15=
EXTT16=
EXTT17=
EXTT18=
EXTT19=
EXTT20=
EXTT21=
EXTT22=
EXTT23=
EXTT24=
EXTT25=
EXTT26=
EXTT27=
EXTT28=
EXTT29=
EXTT30=
EXTT31=
EXTT32=
EXTT33=
EXTT34=
PLAYORDER=
